#!OML:ASF G:\ViconDB\ViconDB\414\test\team2\shane.ASF
:FULLY-SPECIFIED
:DEGREES
238
root 3.65534 16.2089 5.38717 -6.29054 6.34692 -5.31055
lowerback 7.47057 -8.07993 -4.68976
upperback 0.531545 -11.012 9.83043
thorax -0.688247 -5.66389 13.9448
lowerneck -18.383 1.27253 -6.00539
upperneck 26.3755 2.95031 2.42423
head 11.5234 1.01894 2.35457
rclavicle 1.50132e-013 -3.02153e-014
rhumerus -52.7362 -10.1626 -68.7522
rradius 23.7953
rwrist 40.9432
rhand -28.9355 -15.3925
rfingers 7.12502
rthumb -2.28946 -45.36
lclavicle -1.61314e-013 6.99722e-014
lhumerus -17.9014 -8.14428 97.5256
lradius 31.5759
lwrist -15.7319
lhand -42.6356 6.32794
lfingers 7.12502
lthumb -15.5074 35.7261
rfemur -24.5306 -18.6872 25.6629
rtibia 46.3058
rfoot -17.0009 5.8879
rtoes -3.38084
lfemur 39.3583 -0.673782 -10.6743
ltibia -5.40694e-014
lfoot -9.89065 -19.4716
ltoes -30.6748
239
root 3.64548 16.2378 5.58325 -6.31701 6.46607 -5.22355
lowerback 4.30473 -6.00816 1.39038
upperback 1.61304 -7.92069 7.04126
thorax 0.094613 -4.01573 6.83277
lowerneck -18.891 -1.51356 -6.74857
upperneck 25.7387 -1.59227 5.36469
head 11.6365 -0.701941 2.89054
rclavicle -9.52179e-014 3.33958e-014
rhumerus -52.3326 -13.4235 -66.1489
rradius 22.4735
rwrist 45.3003
rhand -29.0563 -15.3145
rfingers 7.12502
rthumb -2.40604 -45.2807
lclavicle -9.52179e-014 3.33958e-014
lhumerus -18.2642 -18.1832 97.9823
lradius 31.1017
lwrist -13.8826
lhand -41.8117 6.69597
lfingers 7.12502
lthumb -14.7138 36.1538
rfemur -23.5535 -18.8811 25.3861
rtibia 46.1554
rfoot -17.8866 6.06301
rtoes -3.51498
lfemur 36.7178 -0.809166 -10.5757
ltibia 6.17687
lfoot -9.54351 -19.8599
ltoes -31.5198
240
root 3.63263 16.2689 5.77379 -6.36171 6.5525 -5.10813
lowerback 4.3026 -5.88493 1.48857
upperback 1.62658 -7.75068 6.99661
thorax 0.0715175 -3.92762 6.72632
lowerneck -18.9231 -1.71002 -7.12082
upperneck 25.447 -1.84674 5.73573
head 11.5574 -0.801808 3.04747
rclavicle -9.52179e-014 3.33958e-014
rhumerus -52.3326 -13.4235 -66.1489
rradius 22.4735
rwrist 45.3003
rhand -29.0563 -15.3145
rfingers 7.12502
rthumb -2.40604 -45.2807
lclavicle 6.65929e-015 -7.95139e-015
lhumerus -19.3737 -18.1967 98.5666
lradius 30.8178
lwrist -13.0937
lhand -41.4566 6.62581
lfingers 7.12502
lthumb -14.3717 36.1083
rfemur -22.497 -19.0543 25.0959
rtibia 45.9168
rfoot -18.835 6.15115
rtoes -3.30633
lfemur 32.8198 -0.957465 -10.3113
ltibia 14.8495
lfoot -9.59896 -20.2952
ltoes -31.0992
241
root 3.60938 16.2916 5.96417 -6.5132 6.64832 -5.12268
lowerback 4.37674 -5.78277 1.50366
upperback 1.67155 -7.6111 6.96895
thorax 0.0561223 -3.85688 6.69116
lowerneck -19.0564 -1.75303 -6.82918
upperneck 25.4036 -1.91213 5.46697
head 11.567 -0.834545 2.88635
rclavicle 5.60324e-014 -4.92986e-014
rhumerus -51.6092 -13.9335 -66.6675
rradius 21.8301
rwrist 44.7661
rhand -29.8489 -15.8094
rfingers 7.12502
rthumb -3.17154 -45.7655
lclavicle 5.60324e-014 -4.92986e-014
lhumerus -20.4408 -18.1127 98.9866
lradius 30.2885
lwrist -13.1576
lhand -40.7209 6.41101
lfingers 7.12502
lthumb -13.6627 35.9426
rfemur -21.3578 -19.2094 24.9895
rtibia 45.6185
rfoot -19.5692 6.17252
rtoes -3.23152
lfemur 30.1704 -0.22865 -9.29848
ltibia 20.8801
lfoot -8.41434 -21.4834
ltoes -30.7836
242
root 3.59005 16.3258 6.15314 -6.54436 6.82704 -5.16889
lowerback 4.29776 -5.65259 1.73435
upperback 1.69696 -7.43092 6.8528
thorax 0.0613748 -3.76164 6.42562
lowerneck -19.1213 -1.90986 -6.76357
upperneck 25.2871 -2.18986 5.61302
head 11.5568 -0.93219 2.88465
rclavicle -1.80397e-014 6.36111e-015
rhumerus -51.5294 -14.1692 -67.2157
rradius 22.1318
rwrist 44.464
rhand -29.9559 -15.9803
rfingers 7.12502
rthumb -3.27491 -45.9349
lclavicle -1.80397e-014 6.36111e-015
lhumerus -21.3955 -18.0897 99.2927
lradius 29.6986
lwrist -12.9474
lhand -40.439 5.87207
lfingers 7.12502
lthumb -13.3909 35.4217
rfemur -20.3637 -19.4469 24.9792
rtibia 45.2616
rfoot -20.1043 6.1015
rtoes -2.67666
lfemur 27.6466 0.453311 -8.1557
ltibia 26.1016
lfoot -6.16202 -22.8452
ltoes -28.5891
243
root 3.56505 16.3537 6.33664 -6.64487 7.06729 -5.26144
lowerback 4.41797 -5.51623 1.83272
upperback 1.75348 -7.23887 6.84661
thorax 0.0208977 -3.6635 6.36956
lowerneck -19.4323 -2.13485 -6.89783
upperneck 25.283 -2.49279 5.7816
head 11.6443 -1.05527 2.92446
rclavicle 8.59247e-014 -5.725e-014
rhumerus -51.3139 -14.9012 -67.2149
rradius 22.2455
rwrist 44.8796
rhand -30.208 -15.9083
rfingers 7.12502
rthumb -3.51832 -45.859
lclavicle 8.59247e-014 -5.725e-014
lhumerus -22.2433 -18.0374 99.6535
lradius 29.2137
lwrist -13.1371
lhand -39.8417 5.92885
lfingers 7.12502
lthumb -12.8151 35.5155
rfemur -19.326 -19.6751 25.0542
rtibia 44.9225
rfoot -20.7354 5.8327
rtoes -3.15845
lfemur 25.3148 1.31815 -6.84465
ltibia 30.823
lfoot -4.05757 -24.3941
ltoes -26.3781
244
root 3.54113 16.3761 6.51931 -6.67203 6.97503 -5.38855
lowerback 4.40846 -5.27776 2.03646
upperback 1.84602 -6.91631 6.79228
thorax 0.0591924 -3.49903 6.18312
lowerneck -19.6333 -2.35895 -6.87504
upperneck 25.079 -2.84219 5.93893
head 11.6352 -1.18525 2.92048
rclavicle -1.02126e-013 4.92986e-014
rhumerus -50.7813 -15.02 -67.9304
rradius 22.3383
rwrist 44.59
rhand -29.9051 -15.9616
rfingers 7.12502
rthumb -3.22581 -45.9169
lclavicle -1.02126e-013 4.92986e-014
lhumerus -23.1216 -18.4197 99.9033
lradius 28.9238
lwrist -12.845
lhand -39.2775 6.25279
lfingers 7.12502
lthumb -12.2712 35.8728
rfemur -18.3766 -19.5995 25.23
rtibia 44.6063
rfoot -21.3337 5.62468
rtoes -3.79954
lfemur 23.0504 2.26832 -5.62063
ltibia 35.2705
lfoot -1.64157 -25.6412
ltoes -22.7597
245
root 3.5156 16.3851 6.69822 -6.90051 7.02855 -5.71604
lowerback 4.56981 -5.08137 2.30029
upperback 1.97461 -6.63854 6.82122
thorax 0.0504772 -3.35733 6.06808
lowerneck -19.6508 -2.50185 -6.78745
upperneck 24.8435 -3.0793 5.9991
head 11.5667 -1.27367 2.88557
rclavicle 2.90723e-015 -6.36111e-014
rhumerus -50.1748 -14.2884 -69.2333
rradius 22.4362
rwrist 43.5312
rhand -30.3899 -15.9015
rfingers 7.12502
rthumb -3.69394 -45.8492
lclavicle 2.90723e-015 -6.36111e-014
lhumerus -23.975 -18.7708 100.142
lradius 28.4958
lwrist -13.1556
lhand -38.8277 6.11711
lfingers 7.12502
lthumb -11.8375 35.7625
rfemur -17.2959 -19.5748 25.5267
rtibia 44.354
rfoot -21.8617 5.32725
rtoes -3.54648
lfemur 21.0445 3.1796 -4.20026
ltibia 39.4738
lfoot -0.0505827 -26.7973
ltoes -18.4934
246
root 3.48579 16.3945 6.86586 -6.98733 7.09747 -5.79086
lowerback 4.80529 -4.89364 2.35061
upperback 2.02875 -6.37168 6.71564
thorax -0.0664834 -3.22054 5.94023
lowerneck -19.53 -2.67373 -6.57719
upperneck 24.4112 -3.39597 6.05427
head 11.4002 -1.38926 2.81159
rclavicle -4.00054e-014 4.13472e-014
rhumerus -49.8439 -13.7521 -70.4739
rradius 22.8333
rwrist 43.6393
rhand -30.2673 -16.2452
rfingers 7.12502
rthumb -3.57556 -46.195
lclavicle -4.00054e-014 4.13472e-014
lhumerus -24.7824 -18.5313 100.147
lradius 28.1216
lwrist -13.4065
lhand -38.2157 5.65893
lfingers 7.12502
lthumb -11.2473 35.3374
rfemur -16.4529 -19.2108 25.6826
rtibia 44.146
rfoot -22.2361 4.6066
rtoes -3.46899
lfemur 18.9554 3.52058 -3.34442
ltibia 43.504
lfoot 1.22794 -27.3679
ltoes -12.9396
247
root 3.46021 16.4 7.03098 -7.08588 7.2282 -6.23328
lowerback 4.96887 -4.74509 2.79123
upperback 2.11685 -6.14424 6.71755
thorax -0.131914 -3.10104 5.70007
lowerneck -19.509 -2.86851 -6.5067
upperneck 24.0528 -3.72957 6.23428
head 11.2886 -1.50991 2.8073
rclavicle 1.04859e-014 3.33958e-014
rhumerus -49.015 -13.3702 -71.7557
rradius 23.141
rwrist 42.4161
rhand -30.0568 -16.7047
rfingers 7.12502
rthumb -3.37231 -46.6578
lclavicle 1.04859e-014 3.33958e-014
lhumerus -25.7457 -19.427 100.327
lradius 28.2242
lwrist -12.7699
lhand -37.7751 5.95386
lfingers 7.12502
lthumb -10.8223 35.655
rfemur -15.6823 -19.0561 26.2166
rtibia 43.9946
rfoot -22.6947 4.15043
rtoes -2.76663
lfemur 16.8528 3.93895 -2.06455
ltibia 47.2754
lfoot 0.993608 -27.3773
ltoes -8.44888
248
root 3.44126 16.3953 7.19743 -7.37241 7.19387 -6.65066
lowerback 5.15989 -4.53334 3.18882
upperback 2.31832 -5.84006 6.79365
thorax -0.0842569 -2.94544 5.55373
lowerneck -19.3283 -3.03382 -6.58994
upperneck 23.5177 -3.97305 6.42625
head 11.078 -1.6063 2.84485
rclavicle 1.78906e-014 0
rhumerus -48.1935 -12.4717 -73.1472
rradius 23.5004
rwrist 41.1438
rhand -29.9585 -16.7306
rfingers 7.12502
rthumb -3.27734 -46.6852
lclavicle 1.78906e-014 0
lhumerus -26.4115 -19.6623 100.555
lradius 28.0724
lwrist -12.8786
lhand -37.5302 5.92178
lfingers 7.12502
lthumb -10.5861 35.6352
rfemur -14.7069 -19.0094 26.6991
rtibia 43.8696
rfoot -23.1364 3.60247
rtoes -2.8641
lfemur 14.9961 4.41095 -0.898618
ltibia 50.8706
lfoot -1.35624 -26.3563
ltoes -9.17053
249
root 3.42993 16.3901 7.36798 -7.6658 6.8927 -7.07753
lowerback 5.1934 -4.2412 3.85634
upperback 2.62078 -5.43575 6.70708
thorax 0.110913 -2.73375 5.06142
lowerneck -19.3087 -3.28283 -6.40288
upperneck 23.1075 -4.39115 6.52737
head 10.9523 -1.76718 2.7784
rclavicle 6.95746e-016 -3.97569e-014
rhumerus -47.2913 -12.4192 -73.9762
rradius 23.5927
rwrist 41.4165
rhand -29.8115 -16.2709
rfingers 7.12502
rthumb -3.13543 -46.2276
lclavicle 6.95746e-016 -3.97569e-014
lhumerus -27.1737 -20.447 100.656
lradius 28.1016
lwrist -12.5519
lhand -37.3544 5.87141
lfingers 7.12502
lthumb -10.4165 35.5934
rfemur -13.7299 -18.8085 27.1536
rtibia 43.7924
rfoot -23.7083 3.20532
rtoes -2.75377
lfemur 13.3766 4.91801 0.16944
ltibia 54.1559
lfoot -4.34814 -24.4499
ltoes -11.7847
250
root 3.416 16.3783 7.5285 -7.88201 6.81359 -7.43024
lowerback 5.26605 -4.03433 4.32176
upperback 2.86463 -5.14866 6.65344
thorax 0.260996 -2.58194 4.72834
lowerneck -19.0676 -3.46784 -6.22727
upperneck 22.5066 -4.71604 6.63654
head 10.708 -1.89254 2.73021
rclavicle 1.43125e-014 -9.54166e-015
rhumerus -46.1058 -11.4924 -75.4828
rradius 23.7199
rwrist 40.409
rhand -29.6629 -16.039
rfingers 7.12502
rthumb -2.99192 -45.9978
lclavicle 1.43125e-014 -9.54166e-015
lhumerus -27.9102 -21.422 100.818
lradius 28.1401
lwrist -12.0351
lhand -37.3229 5.99499
lfingers 7.12502
lthumb -10.3862 35.7185
rfemur -12.8576 -18.4681 27.5481
rtibia 43.7138
rfoot -24.2201 2.69705
rtoes -2.45488
lfemur 11.5822 5.21532 1.08593
ltibia 57.1964
lfoot -6.264 -22.6225
ltoes -12.8557
